<?xml version="1.0" standalone="no"?>
<!DOCTYPE svg PUBLIC "-//W3C//DTD SVG 20010904//EN"
 "http://www.w3.org/TR/2001/REC-SVG-20010904/DTD/svg10.dtd">
<svg version="1.0" xmlns="http://www.w3.org/2000/svg"
 width="2048.000000pt" height="2048.000000pt" viewBox="0 0 2048.000000 2048.000000"
 preserveAspectRatio="xMidYMid meet">

<g transform="translate(0.000000,2048.000000) scale(0.100000,-0.100000)"
fill="#000000" stroke="none">
<path d="M10065 17903 c-88 -18 -180 -55 -270 -107 -61 -35 -408 -378 -2688
-2656 -1440 -1438 -2639 -2642 -2664 -2675 -58 -77 -117 -194 -144 -287 -30
-105 -37 -288 -14 -399 99 -490 605 -793 1082 -648 81 25 189 78 258 127 28
19 886 870 1907 1891 l1858 1856 2 -5875 3 -5875 23 -75 c52 -167 158 -328
284 -427 425 -339 1046 -211 1292 267 25 47 55 119 68 160 l23 75 3 5875 2
5875 1858 -1856 c1021 -1021 1880 -1872 1907 -1891 174 -123 397 -183 598
-158 189 23 350 97 484 224 195 184 282 397 270 660 -8 174 -52 310 -150 456
-16 25 -1207 1223 -2646 2663 -2802 2805 -2681 2688 -2851 2756 -151 60 -342
77 -495 44z"/>
</g>
</svg>
