<?xml version="1.0" encoding="UTF-8"?>
<svg version="1.1" xmlns="http://www.w3.org/2000/svg" width="108" height="80">
<path d="M0 0 C0.84899872 -0.00014603 1.69799744 -0.00029205 2.57272339 -0.0004425 C5.38094634 0.00025456 8.18910308 0.00803733 10.99731445 0.01586914 C12.94358789 0.01773405 14.88986179 0.01915761 16.83613586 0.02015686 C21.96043187 0.02397627 27.08469956 0.03380166 32.20898438 0.04486084 C37.43725196 0.05508733 42.66552412 0.05965714 47.89379883 0.06469727 C58.1535769 0.07542442 68.41333395 0.09249396 78.6730957 0.11352539 C78.6730957 3.11352539 78.6730957 3.11352539 77.52856445 4.62133789 C73.0689242 8.94520455 68.36507851 12.87387993 63.52856445 16.76977539 C58.55048501 20.85575031 53.65940671 25.11224541 49.11450195 29.67993164 C47.51493683 31.27082704 45.83400372 32.72062035 44.1105957 34.17602539 C42.21862724 35.7750439 40.4264955 37.3601256 38.6730957 39.11352539 C35.58181688 40.48742709 33.53901938 41.26506203 30.1730957 40.67602539 C27.16265253 38.79449841 25.34381562 36.57219519 23.20043945 33.76977539 C21.49996808 31.92578597 19.91178366 31.19690651 17.6730957 30.11352539 C16.56126799 28.73216369 15.45132967 27.34922247 14.3527832 25.95727539 C10.03824769 21.22132012 4.6416415 17.45890318 -0.3737793 13.49633789 C-1.72490712 12.40900169 -3.03259338 11.2679108 -4.3269043 10.11352539 C-4.3269043 9.45352539 -4.3269043 8.79352539 -4.3269043 8.11352539 C-4.9250293 7.84540039 -5.5231543 7.57727539 -6.1394043 7.30102539 C-8.32538283 6.11435133 -9.74023024 5.01753426 -11.3269043 3.11352539 C-11.3269043 2.45352539 -11.3269043 1.79352539 -11.3269043 1.11352539 C-7.52251833 -0.15460326 -3.9626439 -0.01774797 0 0 Z " fill="#2D2B2C" transform="translate(20.326904296875,4.886474609375)"/>
<path d="M0 0 C0.58007812 0.44472656 1.16015625 0.88945313 1.7578125 1.34765625 C6.50066988 4.89868835 6.50066988 4.89868835 12.125 6.1875 C14.68965637 5.12818541 16.46333682 4.04502098 18.6796875 2.42578125 C19.30343262 1.97243408 19.92717773 1.51908691 20.56982422 1.05200195 C21.04178223 0.70484131 21.51374023 0.35768066 22 0 C29.61389991 6.46903613 37.16163142 12.9820491 44.51953125 19.7421875 C47.44048753 22.40094771 50.42635073 24.97614292 53.44140625 27.52734375 C55 29 55 29 57 32 C55.16642556 33.83357444 52.60364305 33.11999967 50.1640625 33.12442017 C49.32609131 33.12082489 48.48812012 33.11722961 47.62475586 33.11352539 C46.30780479 33.11374443 46.30780479 33.11374443 44.96424866 33.1139679 C42.04775565 33.11326844 39.13132567 33.10547455 36.21484375 33.09765625 C34.19845108 33.09579218 32.18205796 33.09436823 30.16566467 33.09336853 C24.84734862 33.08954244 19.5290597 33.07971139 14.21075439 33.06866455 C8.78829312 33.05845238 3.36582748 33.05387133 -2.05664062 33.04882812 C-12.70443903 33.0380892 -23.35221726 33.02101169 -34 33 C-34 30 -34 30 -32.85546875 28.4921875 C-28.39820999 24.17062983 -23.70066745 20.24053907 -18.859375 16.35546875 C-15.10433894 13.26218085 -11.54717086 9.97615192 -7.99609375 6.65234375 C-6 5 -6 5 -4 5 C-4 4.34 -4 3.68 -4 3 C-2 1.375 -2 1.375 0 0 Z " fill="#2D2B2B" transform="translate(43,42)"/>
<path d="M0 0 C3.92467855 1.65898248 6.93492485 4.30762715 10.125 7.0625 C10.69758545 7.55202148 11.2701709 8.04154297 11.86010742 8.54589844 C16.19948324 12.27071567 20.46609212 16.072821 24.69921875 19.91796875 C28.09392256 22.98991634 31.54382961 25.99757265 35 29 C33.42778222 33.04419876 30.54842917 35.50592998 27.375 38.3125 C26.83738037 38.795979 26.29976074 39.27945801 25.74584961 39.77758789 C24.16962198 41.19164346 22.58602818 42.59695524 21 44 C20.20980469 44.70382813 19.41960938 45.40765625 18.60546875 46.1328125 C15.86637775 48.55243017 13.1106717 50.91196569 10.25 53.1875 C7.95102061 54.96407988 7.95102061 54.96407988 5.9375 57.125 C4.0394568 58.961816 2.41114256 59.96665319 0 61 C-1.98763603 57.68647721 -2.22600728 55.2568225 -2.15112305 51.42114258 C-2.12570686 49.74469414 -2.12570686 49.74469414 -2.09977722 48.03437805 C-2.07071793 46.83322861 -2.04165863 45.63207916 -2.01171875 44.39453125 C-1.98906448 43.1595842 -1.96641022 41.92463715 -1.94306946 40.65226746 C-1.8803411 37.37600856 -1.80811336 34.10012826 -1.73205566 30.82415771 C-1.65804363 27.48256488 -1.60103945 24.14070051 -1.54101562 20.79882812 C-1.49054398 18.26820982 -1.43914374 15.73760984 -1.38671875 13.20703125 C-1.36373215 11.99980911 -1.34074554 10.79258698 -1.31706238 9.54878235 C-1.27746147 7.88651863 -1.27746147 7.88651863 -1.23706055 6.19067383 C-1.21548386 5.21012527 -1.19390717 4.22957672 -1.17167664 3.21931458 C-1 1 -1 1 0 0 Z " fill="#292728" transform="translate(5,10)"/>
<path d="M0 0 C0.66 0.33 1.32 0.66 2 1 C3.07271639 7.73846599 3.16031944 14.42676406 3.16796875 21.23828125 C3.17296135 22.80306465 3.17296135 22.80306465 3.17805481 24.39945984 C3.1830879 26.58864911 3.18546426 28.77784596 3.18530273 30.96704102 C3.18750489 34.31995043 3.20574147 37.6725386 3.22460938 41.02539062 C3.2275409 43.15885305 3.22952731 45.29231702 3.23046875 47.42578125 C3.23765427 48.42684402 3.24483978 49.4279068 3.25224304 50.45930481 C3.24916641 51.39094955 3.24608978 52.3225943 3.24291992 53.2824707 C3.24434494 54.09915726 3.24576996 54.91584381 3.24723816 55.75727844 C2.97484738 58.22816192 2.23554233 59.86073008 1 62 C-3.93600889 59.43707231 -6.51210499 57.38778505 -10 53 C-11.60813417 51.60127228 -13.25731511 50.24880219 -14.9375 48.9375 C-21.59420235 43.61213812 -27.79003997 37.83479552 -34 32 C-32.44298875 28.10747188 -29.98565894 25.93857023 -26.875 23.1875 C-26.3785498 22.74591553 -25.88209961 22.30433105 -25.37060547 21.84936523 C-23.9187763 20.56054435 -22.4595369 19.28008564 -21 18 C-20.32453125 17.39929688 -19.6490625 16.79859375 -18.953125 16.1796875 C-12.73156863 10.67600302 -6.35061652 5.35349228 0 0 Z " fill="#262425" transform="translate(102,9)"/>
<path d="M0 0 C0.66 0.33 1.32 0.66 2 1 C3.07271639 7.73846599 3.16031944 14.42676406 3.16796875 21.23828125 C3.17129715 22.28147018 3.17462555 23.32465912 3.17805481 24.39945984 C3.1830879 26.58864911 3.18546426 28.77784596 3.18530273 30.96704102 C3.18750489 34.31995043 3.20574147 37.6725386 3.22460938 41.02539062 C3.2275409 43.15885305 3.22952731 45.29231702 3.23046875 47.42578125 C3.23765427 48.42684402 3.24483978 49.4279068 3.25224304 50.45930481 C3.24916641 51.39094955 3.24608978 52.3225943 3.24291992 53.2824707 C3.24434494 54.09915726 3.24576996 54.91584381 3.24723816 55.75727844 C2.97484738 58.22816192 2.23554233 59.86073008 1 62 C-2.465 60.02 -2.465 60.02 -6 58 C-5.67 57.34 -5.34 56.68 -5 56 C-4.34 56 -3.68 56 -3 56 C-3 55.34 -3 54.68 -3 54 C-1.02 53.505 -1.02 53.505 1 53 C1 36.17 1 19.34 1 2 C0.34 1.67 -0.32 1.34 -1 1 C-0.67 0.67 -0.34 0.34 0 0 Z " fill="#4F4E4E" transform="translate(102,9)"/>
<path d="M0 0 C0.99 0.33 1.98 0.66 3 1 C2.01 1.33 1.02 1.66 0 2 C0 20.48 0 38.96 0 58 C0.66 58 1.32 58 2 58 C1.67 58.99 1.34 59.98 1 61 C-1 60 -1 60 -2 57 C-2.065352 55.17935207 -2.06897384 53.35621821 -2.03759766 51.53466797 C-2.02072906 50.41696014 -2.00386047 49.29925232 -1.98648071 48.14767456 C-1.9625827 46.94136383 -1.93868469 45.7350531 -1.9140625 44.4921875 C-1.88220352 42.6376445 -1.88220352 42.6376445 -1.84970093 40.74563599 C-1.79155939 37.4612739 -1.72831386 34.17705553 -1.66339111 30.89282227 C-1.6249822 28.87406445 -1.5905479 26.85527996 -1.55761719 24.83642578 C-1.49422002 20.97156414 -1.42404712 17.10688829 -1.3515625 13.2421875 C-1.33171295 12.03182831 -1.3118634 10.82146912 -1.29141235 9.57443237 C-1.26823944 8.46302887 -1.24506653 7.35162537 -1.22119141 6.20654297 C-1.20263092 5.22297821 -1.18407043 4.23941345 -1.16494751 3.2260437 C-1 1 -1 1 0 0 Z " fill="#343233" transform="translate(5,10)"/>
<path d="M0 0 C0.66 0.33 1.32 0.66 2 1 C0.515 2.485 0.515 2.485 -1 4 C-0.34 4.66 0.32 5.32 1 6 C-1 9 -1 9 -3.625 9.6875 C-4.40875 9.790625 -5.1925 9.89375 -6 10 C-6 11.32 -6 12.64 -6 14 C-6 14.66 -6 15.32 -6 16 C-8.64 16 -11.28 16 -14 16 C-13.42683305 12.71590826 -12.53366486 11.19511813 -10.05859375 8.984375 C-9.47529297 8.45585938 -8.89199219 7.92734375 -8.29101562 7.3828125 C-7.67935547 6.84398438 -7.06769531 6.30515625 -6.4375 5.75 C-5.82197266 5.19570313 -5.20644531 4.64140625 -4.57226562 4.0703125 C-3.05498325 2.70593455 -1.52837406 1.35194145 0 0 Z " fill="#393838" transform="translate(24,58)"/>
<path d="M0 0 C1.485 0.99 1.485 0.99 3 2 C5.43717258 1.72965366 5.43717258 1.72965366 8 1 C8.928125 0.814375 9.85625 0.62875 10.8125 0.4375 C11.534375 0.293125 12.25625 0.14875 13 0 C11.73615515 3.79153455 10.26434102 4.75123174 7 7 C3.8125 8.3125 3.8125 8.3125 1 9 C0.34 8.67 -0.32 8.34 -1 8 C-0.67 5.36 -0.34 2.72 0 0 Z " fill="#323031" transform="translate(52,37)"/>
<path d="M0 0 C3.81538462 2.46153846 3.81538462 2.46153846 4.75 5.1875 C4.87375 6.0846875 4.87375 6.0846875 5 7 C-1.75 8 -1.75 8 -4 8 C-6.0078864 8.64252365 -8.00882592 9.30741771 -10 10 C-8.71937515 8.2925002 -7.38232443 6.62626404 -6 5 C-5.34 5 -4.68 5 -4 5 C-4 4.34 -4 3.68 -4 3 C-2 1.375 -2 1.375 0 0 Z " fill="#383637" transform="translate(43,42)"/>
<path d="M0 0 C5.09210286 3.56320845 9.22660027 7.04741286 13 12 C12.01 12 11.02 12 10 12 C9.566875 11.38125 9.13375 10.7625 8.6875 10.125 C6.47853837 7.34334461 4.3690902 6.89842405 1 6 C0.67 4.02 0.34 2.04 0 0 Z " fill="#595657" transform="translate(77,53)"/>
<path d="M0 0 C0.33 2.64 0.66 5.28 1 8 C-2.57575896 8 -4.05295935 6.91159393 -7 5 C-6.67 4.34 -6.34 3.68 -6 3 C-5.34 3 -4.68 3 -4 3 C-4 2.34 -4 1.68 -4 1 C-2 0 -2 0 0 0 Z " fill="#464445" transform="translate(103,62)"/>
<path d="M0 0 C0.33 0 0.66 0 1 0 C1 5.28 1 10.56 1 16 C1.66 16 2.32 16 3 16 C2.67 16.99 2.34 17.98 2 19 C-0 18 -0 18 -1 15 C-1.09435979 13.00179272 -1.12990301 11.00042797 -1.125 9 C-1.12757812 7.948125 -1.13015625 6.89625 -1.1328125 5.8125 C-1 3 -1 3 0 0 Z " fill="#7D7C7D" transform="translate(4,52)"/>
<path d="M0 0 C0.66 0.33 1.32 0.66 2 1 C0.515 2.485 0.515 2.485 -1 4 C-0.34 4.66 0.32 5.32 1 6 C0.01 7.485 0.01 7.485 -1 9 C-3.475 8.01 -3.475 8.01 -6 7 C-4.02 4.69 -2.04 2.38 0 0 Z " fill="#535152" transform="translate(24,58)"/>
<path d="M0 0 C0.33 0 0.66 0 1 0 C1.33 5.61 1.66 11.22 2 17 C1.01 16.67 0.02 16.34 -1 16 C-0.67 10.72 -0.34 5.44 0 0 Z " fill="#232122" transform="translate(6,52)"/>
<path d="M0 0 C1.875 0.3125 1.875 0.3125 4 1 C4.66 1.99 5.32 2.98 6 4 C5.01 4.99 4.02 5.98 3 7 C1.68 5.68 0.36 4.36 -1 3 C-0.67 2.01 -0.34 1.02 0 0 Z " fill="#434243" transform="translate(20,14)"/>
<path d="M0 0 C0.66 0 1.32 0 2 0 C2.33 1.65 2.66 3.3 3 5 C2.01 5 1.02 5 0 5 C-2.01151741 5.63106429 -4.01363702 6.29373761 -6 7 C-4.71937515 5.2925002 -3.38232443 3.62626404 -2 2 C-1.34 2 -0.68 2 0 2 C0 1.34 0 0.68 0 0 Z " fill="#454344" transform="translate(39,45)"/>
<path d="M0 0 C0.66 0.33 1.32 0.66 2 1 C1.67 2.65 1.34 4.3 1 6 C-1.31 6.33 -3.62 6.66 -6 7 C-4.02 4.69 -2.04 2.38 0 0 Z " fill="#4B4A4B" transform="translate(98,12)"/>
<path d="M0 0 C0 0.99 0 1.98 0 3 C-2.5 5.1875 -2.5 5.1875 -5 7 C-5.33 5.35 -5.66 3.7 -6 2 C-4.02 1.34 -2.04 0.68 0 0 Z " fill="#787475" transform="translate(64,37)"/>
<path d="M0 0 C0.33 0.66 0.66 1.32 1 2 C1.66 2 2.32 2 3 2 C3 3.98 3 5.96 3 8 C1.35 6.68 -0.3 5.36 -2 4 C-1.34 2.68 -0.68 1.36 0 0 Z " fill="#514F50" transform="translate(70,37)"/>
<path d="M0 0 C1.32 1.32 2.64 2.64 4 4 C1.625 4.625 1.625 4.625 -1 5 C-1.66 4.34 -2.32 3.68 -3 3 C-2.01 2.01 -1.02 1.02 0 0 Z " fill="#373334" transform="translate(86,23)"/>
<path d="M0 0 C0.99 0.66 1.98 1.32 3 2 C1.68 3.32 0.36 4.64 -1 6 C-1.66 5.67 -2.32 5.34 -3 5 C-3 4.01 -3 3.02 -3 2 C-2.01 1.34 -1.02 0.68 0 0 Z " fill="#636162" transform="translate(93,9)"/>
<path d="M0 0 C0.66 0.66 1.32 1.32 2 2 C1.34 2 0.68 2 0 2 C0 1.34 0 0.68 0 0 Z " fill="#FFFFFF" transform="translate(85,57)"/>
<path d="" fill="#FFFFFF" transform="translate(0,0)"/>
<path d="" fill="#E3E3E3" transform="translate(0,0)"/>
<path d="" fill="#D8D8D8" transform="translate(0,0)"/>
<path d="" fill="#E1E1E1" transform="translate(0,0)"/>
<path d="" fill="#FFFFFF" transform="translate(0,0)"/>
<path d="" fill="#DBDBDB" transform="translate(0,0)"/>
<path d="" fill="#D9D9D9" transform="translate(0,0)"/>
<path d="" fill="#DBDBDB" transform="translate(0,0)"/>
<path d="" fill="#DBDBDB" transform="translate(0,0)"/>
<path d="" fill="#DBDBDB" transform="translate(0,0)"/>
<path d="" fill="#FFFFFF" transform="translate(0,0)"/>
<path d="" fill="#DFDFDF" transform="translate(0,0)"/>
<path d="" fill="#FFFFFF" transform="translate(0,0)"/>
<path d="" fill="#FFFFFF" transform="translate(0,0)"/>
<path d="" fill="#EAEAEA" transform="translate(0,0)"/>
<path d="" fill="#EAEAEA" transform="translate(0,0)"/>
<path d="" fill="#FFFFFF" transform="translate(0,0)"/>
<path d="" fill="#FFFFFF" transform="translate(0,0)"/>
<path d="" fill="#FFFFFF" transform="translate(0,0)"/>
<path d="" fill="#FFFFFF" transform="translate(0,0)"/>
<path d="" fill="#D8D8D8" transform="translate(0,0)"/>
<path d="" fill="#DFDFDF" transform="translate(0,0)"/>
<path d="" fill="#FFFFFF" transform="translate(0,0)"/>
<path d="" fill="#FFFFFF" transform="translate(0,0)"/>
<path d="" fill="#D8D8D8" transform="translate(0,0)"/>
<path d="" fill="#FFFFFF" transform="translate(0,0)"/>
</svg>
