<?xml version="1.0" standalone="no"?>
<!DOCTYPE svg PUBLIC "-//W3C//DTD SVG 20010904//EN"
 "http://www.w3.org/TR/2001/REC-SVG-20010904/DTD/svg10.dtd">
<svg version="1.0" xmlns="http://www.w3.org/2000/svg"
 width="192.000000pt" height="198.000000pt" viewBox="0 0 192.000000 198.000000"
 preserveAspectRatio="xMidYMid meet">

<g transform="translate(0.000000,198.000000) scale(0.100000,-0.100000)"
fill="#000000" stroke="none">
<path d="M801 1855 c-366 -69 -653 -361 -717 -727 -78 -448 208 -891 652
-1008 473 -124 956 161 1086 642 32 118 32 318 0 436 -86 318 -326 559 -638
642 -104 27 -283 35 -383 15z m359 -30 c88 -20 213 -76 297 -133 32 -22 96
-79 141 -126 65 -70 92 -108 132 -189 72 -145 92 -232 94 -392 1 -156 -16
-236 -79 -372 -108 -230 -300 -393 -552 -469 -116 -35 -315 -40 -433 -10 -158
39 -308 126 -421 243 -78 80 -118 137 -164 236 -96 201 -108 430 -34 651 101
302 369 525 692 577 75 12 240 4 327 -16z"/>
<path d="M555 1474 c-43 -22 -94 -73 -118 -119 -81 -154 91 -484 357 -687 138
-104 371 -198 491 -198 140 0 263 164 195 261 -24 33 -170 109 -209 109 -31 0
-57 -21 -96 -73 -38 -51 -54 -58 -101 -46 -65 18 -195 100 -260 164 -59 58
-114 146 -114 181 0 9 18 37 41 61 40 44 41 46 37 107 -5 83 -63 207 -110 236
-40 24 -73 25 -113 4z"/>
</g>
</svg>
