<?xml version="1.0" standalone="no"?>
<!DOCTYPE svg PUBLIC "-//W3C//DTD SVG 20010904//EN"
 "http://www.w3.org/TR/2001/REC-SVG-20010904/DTD/svg10.dtd">
<svg version="1.0" xmlns="http://www.w3.org/2000/svg"
 width="499.000000pt" height="499.000000pt" viewBox="0 0 499.000000 499.000000"
 preserveAspectRatio="xMidYMid meet">

<g transform="translate(0.000000,499.000000) scale(0.100000,-0.100000)"
fill="#000000" stroke="none">
<path d="M2300 4459 c-933 -93 -1675 -833 -1769 -1768 -61 -595 163 -1206 592
-1618 294 -282 666 -464 1078 -529 138 -21 437 -22 579 -1 327 49 638 179 902
377 109 82 297 265 374 365 312 404 458 924 400 1424 -80 687 -477 1254 -1091
1556 -161 79 -296 126 -457 159 -215 43 -409 55 -608 35z m650 -670 c0 -85 57
-229 127 -320 51 -67 144 -144 211 -175 64 -29 154 -54 197 -54 57 0 57 0 63
-231 l5 -212 -85 6 c-149 12 -324 73 -446 156 -34 22 -63 41 -66 41 -4 0 -6
-219 -6 -487 -1 -363 -4 -507 -14 -563 -50 -277 -251 -517 -516 -616 -118 -45
-203 -58 -329 -51 -133 7 -200 25 -326 87 -200 98 -353 288 -421 520 -29 101
-27 329 4 430 115 364 435 599 802 588 l95 -3 3 -226 2 -226 -102 1 c-93 1
-109 -2 -165 -28 -76 -35 -144 -104 -181 -184 -23 -49 -27 -70 -27 -147 1 -81
4 -97 33 -157 140 -288 540 -269 668 32 18 43 19 85 22 953 l3 907 224 0 225
0 0 -41z"/>
</g>
</svg>
